<svg width="51" height="58" viewBox="0 0 51 58" fill="none" xmlns="http://www.w3.org/2000/svg">
<g filter="url(#filter0_d_55_43)">
<path d="M24.5902 50C13.2185 50 4 40.5745 4 28.9474C4 17.3203 13.2185 7.89474 24.5902 7.89474C35.9619 7.89474 45.1803 17.3203 45.1803 28.9474C45.1675 40.5689 35.9565 49.9868 24.5902 50ZM24.5902 13.1579C16.0614 13.1579 9.14754 20.2271 9.14754 28.9474C9.14754 37.6676 16.0614 44.7368 24.5902 44.7368C33.1189 44.7368 40.0328 37.6676 40.0328 28.9474C40.0228 20.2313 33.1148 13.1681 24.5902 13.1579ZM27.1639 31.5789H22.0164V18.4211H27.1639V31.5789ZM43.3607 15.0184L38.2131 9.75526L41.8525 6.03421L47 11.2974L43.3633 15.0158L43.3607 15.0184ZM32.3115 5.26316H16.8689V0H32.3115V5.26316Z" fill="#F2F0FE"/>
</g>
<defs>
<filter id="filter0_d_55_43" x="0" y="0" width="51" height="58" filterUnits="userSpaceOnUse" color-interpolation-filters="sRGB">
<feFlood flood-opacity="0" result="BackgroundImageFix"/>
<feColorMatrix in="SourceAlpha" type="matrix" values="0 0 0 0 0 0 0 0 0 0 0 0 0 0 0 0 0 0 127 0" result="hardAlpha"/>
<feOffset dy="4"/>
<feGaussianBlur stdDeviation="2"/>
<feComposite in2="hardAlpha" operator="out"/>
<feColorMatrix type="matrix" values="0 0 0 0 0 0 0 0 0 0 0 0 0 0 0 0 0 0 0.25 0"/>
<feBlend mode="normal" in2="BackgroundImageFix" result="effect1_dropShadow_55_43"/>
<feBlend mode="normal" in="SourceGraphic" in2="effect1_dropShadow_55_43" result="shape"/>
</filter>
</defs>
</svg>
